<svg width="61" height="65" viewBox="0 0 61 65" fill="none" xmlns="http://www.w3.org/2000/svg">
<path d="M48.2916 56.875V40.625M40.6666 48.75H55.9166M30.4999 40.625H20.3333C15.5962 40.625 13.2276 40.625 11.3593 41.4497C8.86818 42.5493 6.889 44.6582 5.85714 47.3127C5.08325 49.3036 5.08325 51.8272 5.08325 56.875M39.3957 8.91248C43.1216 10.5196 45.7499 14.4119 45.7499 18.9583C45.7499 23.5048 43.1216 27.3972 39.3957 29.0041M34.3124 18.9583C34.3124 24.9414 29.7605 29.7917 24.1458 29.7917C18.5309 29.7917 13.9791 24.9414 13.9791 18.9583C13.9791 12.9752 18.5309 8.125 24.1458 8.125C29.7605 8.125 34.3124 12.9752 34.3124 18.9583Z" stroke="#454B56" stroke-width="3" stroke-linecap="round" stroke-linejoin="round"/>
</svg>
