<svg width="74" height="74" viewBox="0 0 74 74" fill="none" xmlns="http://www.w3.org/2000/svg">
    <path d="M52.4167 27.7498C52.4167 26.1717 51.8145 24.5936 50.6104 23.3895C49.4064 22.1854 47.828 21.5833 46.25 21.5833M46.25 46.25C56.4672 46.25 64.75 37.9672 64.75 27.75C64.75 17.5327 56.4672 9.25 46.25 9.25C36.0328 9.25 27.75 17.5327 27.75 27.75C27.75 28.5938 27.8065 29.4245 27.9159 30.2384C28.0959 31.577 28.1859 32.2464 28.1253 32.6698C28.0622 33.111 27.9819 33.3484 27.7645 33.7375C27.5558 34.1109 27.1879 34.4788 26.4523 35.2144L10.6949 50.9718C10.1617 51.5049 9.89503 51.7716 9.70436 52.0827C9.5353 52.3587 9.41073 52.6593 9.33519 52.9741C9.25 53.329 9.25 53.7061 9.25 54.46V59.8167C9.25 61.5436 9.25 62.407 9.58605 63.0665C9.88168 63.6468 10.3534 64.1182 10.9335 64.4139C11.5931 64.75 12.4565 64.75 14.1833 64.75H21.5833V58.5833H27.75V52.4167H33.9167L38.7856 47.5478C39.5212 46.8121 39.8891 46.4442 40.2625 46.2355C40.6516 46.0181 40.889 45.9377 41.3302 45.8748C41.7536 45.814 42.423 45.9041 43.7617 46.0841C44.5754 46.1936 45.4061 46.25 46.25 46.25Z"
          stroke="#454B56" stroke-width="3" stroke-linecap="round" stroke-linejoin="round"/>
</svg>
