<svg width="16" height="16" viewBox="0 0 16 16" fill="none" xmlns="http://www.w3.org/2000/svg">
<path d="M7.6451 0.72117C7.67797 0.654766 7.72874 0.59887 7.79169 0.559789C7.85464 0.520709 7.92726 0.5 8.00135 0.5C8.07544 0.5 8.14806 0.520709 8.21101 0.559789C8.27396 0.59887 8.32473 0.654766 8.3576 0.72117L10.0901 4.23042C10.2042 4.4614 10.3727 4.66123 10.5811 4.81276C10.7894 4.96429 11.0314 5.06301 11.2863 5.10042L15.1608 5.66742C15.2343 5.67806 15.3032 5.70902 15.36 5.75682C15.4167 5.80462 15.4589 5.86733 15.4819 5.93788C15.5048 6.00842 15.5076 6.08398 15.4898 6.156C15.472 6.22802 15.4345 6.29363 15.3813 6.34542L12.5793 9.07392C12.3946 9.254 12.2563 9.47628 12.1765 9.72164C12.0966 9.967 12.0776 10.2281 12.1211 10.4824L12.7826 14.3374C12.7956 14.4108 12.7876 14.4863 12.7597 14.5554C12.7318 14.6245 12.685 14.6844 12.6248 14.7282C12.5645 14.772 12.4931 14.7979 12.4187 14.8031C12.3444 14.8083 12.2701 14.7924 12.2043 14.7574L8.74085 12.9364C8.51264 12.8166 8.25873 12.754 8.00097 12.754C7.74321 12.754 7.48931 12.8166 7.2611 12.9364L3.79835 14.7574C3.7326 14.7922 3.6584 14.8079 3.58419 14.8026C3.50998 14.7973 3.43874 14.7713 3.37857 14.7276C3.3184 14.6838 3.27172 14.6241 3.24384 14.5551C3.21596 14.4861 3.20799 14.4107 3.22085 14.3374L3.8816 10.4832C3.92525 10.2287 3.90634 9.96747 3.8265 9.72196C3.74667 9.47644 3.60831 9.25404 3.42335 9.07392L0.62135 6.34617C0.567795 6.29445 0.529845 6.22872 0.511822 6.15648C0.493799 6.08424 0.496427 6.00838 0.519409 5.93756C0.54239 5.86674 0.5848 5.8038 0.641807 5.75591C0.698815 5.70801 0.768127 5.67709 0.84185 5.66667L4.7156 5.10042C4.97079 5.0633 5.21314 4.96471 5.42179 4.81316C5.63043 4.66161 5.79913 4.46162 5.91335 4.23042L7.6451 0.72117Z" fill="#FCFF48" stroke="#6A7282" stroke-linecap="round" stroke-linejoin="round"/>
</svg>
